<?xml version="1.0" encoding="UTF-8"?>
<svg width="16px" height="15px" viewBox="0 0 16 15" version="1.1" xmlns="http://www.w3.org/2000/svg" xmlns:xlink="http://www.w3.org/1999/xlink">
    <!-- Generator: Sketch 54.1 (76490) - https://sketchapp.com -->
    <title>fav</title>
    <desc>Created with Sketch.</desc>
    <g id="Page-1" stroke="none" stroke-width="1" fill="none" fill-rule="evenodd">
        <g id="Desktop-HD-Copy-3" transform="translate(-389.000000, -75.000000)">
            <g id="fav" transform="translate(389.000000, 74.000000)">
                <rect id="Rectangle" x="0" y="0" width="16" height="16"></rect>
                <g id="iconfinder_paw_1608784-copy" transform="translate(0.000000, 1.000000)" fill="#162CD0" fill-rule="nonzero">
                    <path d="M7.5,3.31790123 C7.5,3.7037037 7.43910256,4.06860854 7.31730769,4.41261574 C7.19551282,4.75662294 6.99358974,5.05401235 6.71153846,5.30478395 C6.42948718,5.55555556 6.09294872,5.68094136 5.70192308,5.68094136 C5.21474359,5.68094136 4.7724359,5.49607767 4.375,5.12635031 C3.9775641,4.75662294 3.68269231,4.32098765 3.49038462,3.81944444 C3.29807692,3.31790123 3.20192308,2.83243313 3.20192308,2.36304012 C3.20192308,1.97723765 3.26282051,1.61233282 3.38461538,1.26832562 C3.50641026,0.924318416 3.70833333,0.626929012 3.99038462,0.376157407 C4.2724359,0.125385802 4.60897436,0 5,0 C5.49358974,0 5.9375,0.184863683 6.33173077,0.554591049 C6.72596154,0.924318416 7.01923077,1.35834619 7.21153846,1.85667438 C7.40384615,2.35500257 7.5,2.84207819 7.5,3.31790123 Z M4.21153846,7.97646605 C4.21153846,8.49086934 4.07692308,8.9377572 3.80769231,9.31712963 C3.53846154,9.69650206 3.15705128,9.88618827 2.66346154,9.88618827 C2.17628205,9.88618827 1.72275641,9.70775463 1.30288462,9.35088735 C0.883012821,8.99402006 0.560897436,8.56481481 0.336538462,8.0632716 C0.112179487,7.5617284 0,7.07304527 0,6.59722222 C0,6.08281893 0.134615385,5.63432356 0.403846154,5.25173611 C0.673076923,4.86914866 1.05448718,4.67785494 1.54807692,4.67785494 C2.03525641,4.67785494 2.48878205,4.85628858 2.90865385,5.21315586 C3.32852564,5.57002315 3.65064103,6.00083591 3.875,6.50559414 C4.09935897,7.01035237 4.21153846,7.500643 4.21153846,7.97646605 Z M8,7.71604938 C8.75641026,7.71604938 9.57371795,8.02951389 10.4519231,8.6564429 C11.3301282,9.28337191 12.0641026,10.0453318 12.6538462,10.9423225 C13.2435897,11.8393133 13.5384615,12.657536 13.5384615,13.3969907 C13.5384615,13.6927726 13.4839744,13.9387217 13.375,14.134838 C13.2660256,14.3309542 13.1105769,14.4756301 12.9086538,14.5688657 C12.7067308,14.6621013 12.5,14.7264017 12.2884615,14.761767 C12.0769231,14.7971322 11.8333333,14.8148148 11.5576923,14.8148148 C11.1217949,14.8148148 10.5208333,14.6701389 9.75480769,14.380787 C8.98878205,14.0914352 8.40384615,13.9467593 8,13.9467593 C7.57692308,13.9467593 6.9599359,14.0898277 6.14903846,14.3759645 C5.33814103,14.6621013 4.69551282,14.8051698 4.22115385,14.8051698 C3.04807692,14.8051698 2.46153846,14.3357767 2.46153846,13.3969907 C2.46153846,12.8440072 2.64102564,12.2283308 3,11.5499614 C3.35897436,10.8715921 3.80608974,10.2527006 4.34134615,9.69328704 C4.87660256,9.13387346 5.4775641,8.66448045 6.14423077,8.28510802 C6.81089744,7.9057356 7.42948718,7.71604938 8,7.71604938 Z M10.2980769,5.68094136 C9.90705128,5.68094136 9.57051282,5.55555556 9.28846154,5.30478395 C9.00641026,5.05401235 8.80448718,4.75662294 8.68269231,4.41261574 C8.56089744,4.06860854 8.5,3.7037037 8.5,3.31790123 C8.5,2.84207819 8.59615385,2.35500257 8.78846154,1.85667438 C8.98076923,1.35834619 9.27403846,0.924318416 9.66826923,0.554591049 C10.0625,0.184863683 10.5064103,0 11,0 C11.3910256,0 11.7275641,0.125385802 12.0096154,0.376157407 C12.2916667,0.626929012 12.4935897,0.924318416 12.6153846,1.26832562 C12.7371795,1.61233282 12.7980769,1.97723765 12.7980769,2.36304012 C12.7980769,2.83243313 12.7019231,3.31790123 12.5096154,3.81944444 C12.3173077,4.32098765 12.0224359,4.75662294 11.625,5.12635031 C11.2275641,5.49607767 10.7852564,5.68094136 10.2980769,5.68094136 Z M14.4519231,4.67785494 C14.9455128,4.67785494 15.3269231,4.86914866 15.5961538,5.25173611 C15.8653846,5.63432356 16,6.08281893 16,6.59722222 C16,7.07304527 15.8878205,7.5617284 15.6634615,8.0632716 C15.4391026,8.56481481 15.1169872,8.99402006 14.6971154,9.35088735 C14.2772436,9.70775463 13.8237179,9.88618827 13.3365385,9.88618827 C12.8429487,9.88618827 12.4615385,9.69650206 12.1923077,9.31712963 C11.9230769,8.9377572 11.7884615,8.49086934 11.7884615,7.97646605 C11.7884615,7.500643 11.900641,7.01035237 12.125,6.50559414 C12.349359,6.00083591 12.6714744,5.57002315 13.0913462,5.21315586 C13.5112179,4.85628858 13.9647436,4.67785494 14.4519231,4.67785494 Z" id="Shape"></path>
                </g>
            </g>
        </g>
    </g>
</svg>