<?xml version="1.0" encoding="UTF-8"?>
<svg width="24px" height="36px" viewBox="0 0 24 36" version="1.1" xmlns="http://www.w3.org/2000/svg" xmlns:xlink="http://www.w3.org/1999/xlink">
    <!-- Generator: Sketch 54.1 (76490) - https://sketchapp.com -->
    <title>Shape</title>
    <desc>Created with Sketch.</desc>
    <defs>
        <linearGradient x1="50%" y1="0%" x2="50%" y2="100%" id="linearGradient-1">
            <stop stop-color="#FF1429" offset="0%"></stop>
            <stop stop-color="#FFB400" offset="100%"></stop>
        </linearGradient>
    </defs>
    <g id="Page-1" stroke="none" stroke-width="1" fill="none" fill-rule="evenodd">
        <g id="Desktop-HD" transform="translate(-950.000000, -388.000000)" fill="url(#linearGradient-1)" fill-rule="nonzero" stroke="#FFFFFF">
            <g id="loc" transform="translate(951.000000, 389.000000)">
                <path d="M11,0 C4.92315312,0 0,4.89518066 0,10.9375 C0,16.9798193 11,35 11,35 C11,35 22,16.9798193 22,10.9375 C22,4.89518066 17.0757812,0 11,0 Z M11,15.3125 C8.5712,15.3125 6.6,13.3525 6.6,10.9375 C6.6,8.5225 8.5712,6.5625 11,6.5625 C13.4277344,6.5625 15.4,8.5225 15.4,10.9375 C15.4,13.3525 13.4277344,15.3125 11,15.3125 Z" id="Shape"></path>
            </g>
        </g>
    </g>
</svg>